<?xml version="1.0" encoding="UTF-8" standalone="no"?>
<!-- Created with Inkscape (http://www.inkscape.org/) -->

<svg
   width="210mm"
   height="297mm"
   viewBox="0 0 210 297"
   version="1.1"
   id="svg1"
   xmlns="http://www.w3.org/2000/svg"
   xmlns:svg="http://www.w3.org/2000/svg">
  <defs
     id="defs1">
    <linearGradient
       id="swatch65">
      <stop
         style="stop-color:#000000;stop-opacity:0;"
         offset="0"
         id="stop65" />
    </linearGradient>
    <linearGradient
       id="swatch64">
      <stop
         style="stop-color:#ff4242;stop-opacity:0;"
         offset="0"
         id="stop64" />
    </linearGradient>
    <linearGradient
       id="swatch63">
      <stop
         style="stop-color:#000000;stop-opacity:1;"
         offset="0"
         id="stop63" />
    </linearGradient>
    <linearGradient
       id="swatch60">
      <stop
         style="stop-color:#000000;stop-opacity:1;"
         offset="0"
         id="stop60" />
    </linearGradient>
    <linearGradient
       id="swatch76">
      <stop
         style="stop-color:#0000ff;stop-opacity:1;"
         offset="0"
         id="stop76" />
    </linearGradient>
    <linearGradient
       id="swatch72">
      <stop
         style="stop-color:#f9f7fd;stop-opacity:1;"
         offset="0"
         id="stop72" />
    </linearGradient>
    <linearGradient
       id="swatch17">
      <stop
         style="stop-color:#000000;stop-opacity:1;"
         offset="0"
         id="stop17" />
    </linearGradient>
    <linearGradient
       id="swatch14">
      <stop
         style="stop-color:#000000;stop-opacity:1;"
         offset="0"
         id="stop14" />
    </linearGradient>
    <linearGradient
       id="swatch13">
      <stop
         style="stop-color:#000000;stop-opacity:1;"
         offset="0"
         id="stop13" />
    </linearGradient>
  </defs>
  <g
     id="layer1">
    <g
       id="g71"
       transform="matrix(1.8722848,0.18469243,-0.17020098,1.7253805,1306.2915,332.27366)">
      <ellipse
         style="fill:#ff7f2a;fill-opacity:1;fill-rule:evenodd;stroke:#000000;stroke-width:1.965;stroke-dasharray:none;stroke-opacity:1"
         id="path63"
         cx="-644.75104"
         cy="-35.842926"
         rx="33.31284"
         ry="25.722572" />
      <path
         style="fill:#784421;fill-opacity:1;fill-rule:evenodd;stroke:#000000;stroke-width:1.965;stroke-dasharray:none;stroke-opacity:1"
         d="m -646.65174,-55.769065 c -0.916,-1.34708 -2.2092,-4.79561 -3.34075,-6.950933 -1.13155,-2.155324 -2.10144,-3.017447 -2.74804,-3.502397 -0.6466,-0.48495 -0.9699,-0.592719 -1.34708,-0.86214 -0.37719,-0.26942 -0.80825,-0.700477 -1.34708,-1.185428 -0.53884,-0.484952 -1.18544,-1.023778 -1.6165,-1.508723 -0.43107,-0.484944 -0.6466,-0.916008 -0.86214,-1.23931 -0.21553,-0.323301 -0.43106,-0.538833 -0.59271,-1.293197 -0.16164,-0.754365 -0.26941,-2.04756 0.80825,-2.963573 1.07766,-0.916012 3.34075,-1.454843 4.58007,-1.724261 1.23932,-0.269418 1.45485,-0.269418 2.37086,1.670378 0.91601,1.939795 2.5325,5.819387 3.44852,8.028596 0.91601,2.209209 1.13155,2.748036 1.34708,3.448516 0.21554,0.700479 0.43106,1.562609 0.59271,2.58639 0.16165,1.02378 0.26941,2.209208 0.37718,3.125222 0.10776,0.916013 0.21553,1.562615 0,2.263094 -0.21553,0.700479 -0.75436,1.454846 -1.67037,0.107766 z"
         id="path65" />
      <path
         style="fill:#008000;fill-opacity:1;fill-rule:evenodd;stroke:#000000;stroke-width:1.965;stroke-dasharray:none;stroke-opacity:1"
         d="m -644.71196,-55.984597 c 0.0539,0.377182 20.09842,-9.645086 19.99065,-10.130034 -0.10776,-0.484948 -0.3233,-1.454845 -0.37718,-2.101444 -0.0539,-0.646599 0.0539,-0.969899 0.10777,-1.939795 0.0539,-0.969895 0.0539,-2.58639 -0.37719,-4.095119 -0.43106,-1.508728 -1.29319,-2.90969 -1.93979,-3.610171 -0.64659,-0.700481 -1.07766,-0.700481 -1.40096,-0.754365 -0.3233,-0.05388 -0.53883,-0.16165 -1.18543,-0.215532 -0.6466,-0.05388 -1.72426,-0.05388 -2.53251,0.05388 -0.80824,0.107766 -1.34707,0.323297 -1.99367,0.53883 -0.6466,0.215534 -1.40096,0.431066 -1.9398,0.646599 -0.53883,0.215534 -0.86213,0.431066 -1.29319,0.646599 -0.43107,0.215533 -0.9699,0.431065 -1.50873,1.131546 -0.53883,0.70048 -1.07767,1.885908 -1.45485,3.179105 -0.37718,1.293197 -0.59271,2.694159 -0.75436,3.448524 -0.16165,0.754365 -0.26942,0.862133 -0.37718,1.34708 -0.10777,0.484947 -0.21553,1.347077 -0.3233,1.832026 -0.10777,0.48495 -0.21553,0.592713 -0.26942,0.754363 -0.0539,0.16165 -0.0539,0.377183 -0.16165,0.700481 -0.10776,0.323299 -0.3233,0.754362 -0.48495,1.293195 -0.16165,0.538832 -0.26941,1.18543 -0.43106,1.616496 -0.16165,0.431065 -0.37718,0.646598 -0.48494,0.916014 -0.10777,0.269416 -0.10777,0.592714 -0.16166,0.754363 -0.0539,0.16165 -0.16165,0.16165 -0.26941,0.431066 -0.10777,0.269417 -0.21553,0.808249 -0.3233,1.131548 -0.10777,0.323299 -0.21553,0.431062 -0.21553,0.862128 -10e-6,0.431067 0.10776,1.185431 0.16164,1.562614 z"
         id="path66" />
      <path
         style="fill:#784421;fill-opacity:1;fill-rule:evenodd;stroke:#000000;stroke-width:1.965;stroke-dasharray:none;stroke-opacity:1"
         d="m -644.65808,-57.870507 c 0.86215,-0.646606 1.72427,-1.293195 2.42475,-1.993674 0.70049,-0.70048 1.23932,-1.454842 1.56262,-1.993676 0.3233,-0.538834 0.43107,-0.862136 0.59271,-1.077668 0.16165,-0.215532 0.37718,-0.323299 0.6466,-0.646598 0.26941,-0.323298 0.59272,-0.862135 0.9699,-1.293198 0.37718,-0.431062 0.80824,-0.754361 1.02377,-0.969894 0.21553,-0.215533 0.21553,-0.3233 0.26942,-0.377183 0.0539,-0.05388 0.16167,-0.05388 0.21555,-0.107766 0.0539,-0.05388 0.0539,-0.161648 0.26941,-0.431064 0.21553,-0.269417 0.64659,-0.700482 0.96989,-1.077662 0.32329,-0.37718 0.53883,-0.700485 0.75437,-0.916017 0.21553,-0.215532 0.43106,-0.323298 0.75436,-0.592711 0.32329,-0.269414 0.75436,-0.700474 1.18544,-1.13155"
         id="path67" />
      <path
         style="fill:#784421;fill-opacity:1;fill-rule:evenodd;stroke:#000000;stroke-width:1.965;stroke-dasharray:none;stroke-opacity:1"
         d="m -635.6057,-74.035453 c 0,1.616493 0,3.232988 0,4.849481"
         id="path68" />
      <path
         style="fill:#784421;fill-opacity:1;fill-rule:evenodd;stroke:#000000;stroke-width:1.965;stroke-dasharray:none;stroke-opacity:1"
         d="m -627.19992,-67.892776 c 0,0 -10.99216,3.556289 -10.99216,3.556289"
         id="path69" />
    </g>
  </g>
</svg>
