<?xml version="1.0" encoding="UTF-8" standalone="no"?>
<!-- Created with Inkscape (http://www.inkscape.org/) -->

<svg
   width="210mm"
   height="297mm"
   viewBox="0 0 210 297"
   version="1.1"
   id="svg1"
   xmlns="http://www.w3.org/2000/svg"
   xmlns:svg="http://www.w3.org/2000/svg">
  <defs
     id="defs1">
    <linearGradient
       id="swatch65">
      <stop
         style="stop-color:#000000;stop-opacity:0;"
         offset="0"
         id="stop65" />
    </linearGradient>
    <linearGradient
       id="swatch64">
      <stop
         style="stop-color:#ff4242;stop-opacity:0;"
         offset="0"
         id="stop64" />
    </linearGradient>
    <linearGradient
       id="swatch63">
      <stop
         style="stop-color:#000000;stop-opacity:1;"
         offset="0"
         id="stop63" />
    </linearGradient>
    <linearGradient
       id="swatch60">
      <stop
         style="stop-color:#000000;stop-opacity:1;"
         offset="0"
         id="stop60" />
    </linearGradient>
    <linearGradient
       id="swatch76">
      <stop
         style="stop-color:#0000ff;stop-opacity:1;"
         offset="0"
         id="stop76" />
    </linearGradient>
    <linearGradient
       id="swatch72">
      <stop
         style="stop-color:#f9f7fd;stop-opacity:1;"
         offset="0"
         id="stop72" />
    </linearGradient>
    <linearGradient
       id="swatch17">
      <stop
         style="stop-color:#000000;stop-opacity:1;"
         offset="0"
         id="stop17" />
    </linearGradient>
    <linearGradient
       id="swatch14">
      <stop
         style="stop-color:#000000;stop-opacity:1;"
         offset="0"
         id="stop14" />
    </linearGradient>
    <linearGradient
       id="swatch13">
      <stop
         style="stop-color:#000000;stop-opacity:1;"
         offset="0"
         id="stop13" />
    </linearGradient>
  </defs>
  <g
     id="layer1">
    <g
       id="g62"
       transform="matrix(2.0868774,0,0,1.6094233,1409.3656,10.855158)">
      <path
         id="path58"
         style="fill:#ff0000;fill-rule:evenodd;stroke:#000000;stroke-width:1.965"
         d="m -599.04808,108.0755 c -6.72588,13.30126 -30.9557,33.79047 -45.52375,26.42403 -14.56805,-7.36645 -13.95772,-39.799016 -7.23183,-53.100286 6.72589,-13.301265 23.98804,-18.112383 38.55608,-10.745937 14.56805,7.366446 20.92538,24.120931 14.1995,37.422193 z" />
      <ellipse
         style="fill:#deaa87;fill-opacity:1;fill-rule:evenodd;stroke:#000000;stroke-width:1.965;stroke-dasharray:none;stroke-opacity:1"
         id="path62-7-1"
         cx="-602.38342"
         cy="248.06639"
         rx="1.983614"
         ry="3.8146422"
         transform="rotate(12.977715)" />
      <ellipse
         style="fill:#deaa87;fill-opacity:1;fill-rule:evenodd;stroke:#000000;stroke-width:1.965;stroke-dasharray:none;stroke-opacity:1"
         id="path62-7-4"
         cx="-587.5918"
         cy="250.02153"
         rx="1.983614"
         ry="3.8146422"
         transform="rotate(12.977715)" />
      <ellipse
         style="fill:#deaa87;fill-opacity:1;fill-rule:evenodd;stroke:#000000;stroke-width:1.965;stroke-dasharray:none;stroke-opacity:1"
         id="path62-7-9"
         cx="-596.11841"
         cy="261.82291"
         rx="1.983614"
         ry="3.8146422"
         transform="rotate(12.977715)" />
      <path
         style="fill:#008000;fill-opacity:1;fill-rule:evenodd;stroke:#000000;stroke-width:1.965;stroke-dasharray:none;stroke-opacity:1"
         d="m -626.72169,62.829244 c -1.57074,0.571174 -2.71308,0.571174 -2.71308,0.571174 0,0 1.14234,0 -0.99957,0 -2.14191,0 -7.56806,0 -10.42393,0.142793 -2.85588,0.142794 -3.14147,0.428382 -3.85543,0.571176 -0.71397,0.142794 -1.85634,0.142794 -2.7131,0.28559 -0.85676,0.142796 -1.42791,0.428373 -3.14145,1.71352 -1.71353,1.285147 -4.56939,3.569838 -5.85454,4.712192 -1.28515,1.142353 -0.99955,1.142353 -0.42838,1.427936 0.57116,0.285584 1.42794,0.856769 5.28337,1.142354 3.85543,0.285586 10.70954,0.285586 14.99334,0.285586 4.2838,0 5.99732,0 6.42571,2.427495 0.4284,2.427494 -0.42837,7.282485 -0.42838,9.709976 -10e-6,2.427492 0.85677,2.427492 1.71353,2.427492 0.85676,0 1.71353,0 2.57029,-0.571177 0.85676,-0.571177 1.71351,-1.71352 2.42749,-2.427494 0.71398,-0.713973 1.28513,-0.999551 1.57072,-1.856316 0.28559,-0.856764 0.28559,-2.284701 0.57118,-3.284261 0.28559,-0.999561 0.85677,-1.570739 1.28515,-2.284703 0.42837,-0.713964 0.71397,-1.570723 0.99956,-1.999104 0.28559,-0.428381 0.57118,-0.428381 0.85676,-0.713969 0.28558,-0.285587 0.57117,-0.856762 0.71396,-0.571175 0.1428,0.285588 0.1428,1.427937 0.42839,2.284701 0.28559,0.856764 0.85675,1.427933 1.14234,2.284697 0.28559,0.856764 0.28559,1.999113 0.42838,2.713082 0.1428,0.713969 0.42839,0.999557 0.57119,1.427937 0.14279,0.428381 0.14279,0.999558 0.42837,1.570728 0.28559,0.57117 0.85677,1.142347 1.14236,3.141462 0.28559,1.999116 0.28559,5.426166 0.85676,6.56852 0.57117,1.142353 1.71353,-8e-6 2.57029,-0.713976 0.85676,-0.713969 1.42794,-0.999559 1.99911,-2.2847 0.57116,-1.285141 1.14234,-3.569843 1.57072,-4.712192 0.42838,-1.142349 0.71397,-1.142349 0.71397,-1.856317 0,-0.713967 -0.28559,-2.141905 -0.14279,-2.427493 0.14279,-0.285588 0.71397,0.571171 1.14235,1.142343 0.42838,0.571172 0.71396,0.856764 0.85676,1.856323 0.14279,0.999558 0.14279,2.713084 0.14279,4.283815 0,1.570731 0,2.998668 0.2856,3.712637 0.28559,0.713969 0.85677,0.713969 2.14191,0.999556 1.28513,0.285588 3.28424,0.856762 4.42659,-1e-6 1.14235,-0.856763 1.42795,-3.14146 1.42795,-4.426606 -10e-6,-1.285146 -0.2856,-1.570732 -0.42839,-2.855875 -0.1428,-1.285143 -0.1428,-3.569843 -0.71397,-5.283366 -0.57117,-1.713522 -1.71353,-2.855879 -2.2847,-3.569847 -0.57117,-0.713967 -0.57117,-0.999553 -0.71396,-1.142348 -0.1428,-0.142794 -0.42839,-0.142794 -0.57118,-0.285587 -0.1428,-0.142793 -0.1428,-0.428381 -0.57118,-0.999554 -0.42837,-0.571173 -1.28514,-1.427943 -1.71351,-1.999116 -0.42838,-0.571173 -0.42838,-0.856761 -0.57117,-0.999554 -0.1428,-0.142793 -0.42839,-0.142793 -1.14236,-1.142346 -0.71397,-0.999553 -1.85633,-2.998675 -2.4275,-4.712198 -0.57117,-1.713524 -0.57117,-3.141461 -0.42838,-7.425273 0.14279,-4.283812 0.42838,-11.423499 0.28559,-15.136133 -0.14279,-3.712635 -0.71397,-3.998225 -0.99956,-4.283814 -0.28559,-0.285589 -0.28559,-0.571177 -1.28515,-0.428383 -0.99955,0.142793 -2.99867,0.71397 -4.14102,2.141907 -1.14234,1.427938 -1.42793,3.712634 -1.71351,4.854985 -0.28559,1.142351 -0.57118,1.142351 -0.71397,1.713526 -0.1428,0.571175 -0.1428,1.713526 -0.28559,2.284701 -0.1428,0.571174 -0.42839,0.571174 -0.57117,0.999556 -0.14279,0.428382 -0.14279,1.285142 -0.28559,1.856318 -0.14279,0.571175 -0.42838,0.856762 -0.57117,1.856318 -0.1428,0.999556 -0.1428,2.713082 -0.71397,3.569844 -0.57117,0.856762 -1.71353,0.856762 -3.28426,1.427936 -1.57072,0.571174 -3.56984,1.713528 -5.14057,2.284702 z"
         id="path59" />
      <ellipse
         style="fill:#deaa87;fill-opacity:1;fill-rule:evenodd;stroke:#000000;stroke-width:1.965;stroke-dasharray:none;stroke-opacity:1"
         id="path62"
         cx="-606.69836"
         cy="232.67392"
         rx="1.983614"
         ry="3.8146422"
         transform="rotate(12.977715)" />
      <ellipse
         style="fill:#deaa87;fill-opacity:1;fill-rule:evenodd;stroke:#000000;stroke-width:1.965;stroke-dasharray:none;stroke-opacity:1"
         id="path62-7"
         cx="-592.46405"
         cy="236.39749"
         rx="1.983614"
         ry="3.8146422"
         transform="rotate(12.977715)" />
      <ellipse
         style="fill:#deaa87;fill-opacity:1;fill-rule:evenodd;stroke:#000000;stroke-width:1.965;stroke-dasharray:none;stroke-opacity:1"
         id="path62-7-7"
         cx="-578.1358"
         cy="239.30029"
         rx="1.983614"
         ry="3.8146422"
         transform="rotate(12.977715)" />
    </g>
  </g>
</svg>
