<?xml version="1.0" encoding="UTF-8" standalone="no"?>
<!-- Created with Inkscape (http://www.inkscape.org/) -->

<svg
   width="210mm"
   height="297mm"
   viewBox="0 0 210 297"
   version="1.1"
   id="svg1"
   xmlns:xlink="http://www.w3.org/1999/xlink"
   xmlns="http://www.w3.org/2000/svg"
   xmlns:svg="http://www.w3.org/2000/svg">
  <defs
     id="defs1">
    <linearGradient
       id="swatch65">
      <stop
         style="stop-color:#000000;stop-opacity:0;"
         offset="0"
         id="stop65" />
    </linearGradient>
    <linearGradient
       id="swatch64">
      <stop
         style="stop-color:#ff4242;stop-opacity:0;"
         offset="0"
         id="stop64" />
    </linearGradient>
    <linearGradient
       id="swatch63">
      <stop
         style="stop-color:#000000;stop-opacity:1;"
         offset="0"
         id="stop63" />
    </linearGradient>
    <linearGradient
       id="swatch60">
      <stop
         style="stop-color:#000000;stop-opacity:1;"
         offset="0"
         id="stop60" />
    </linearGradient>
    <linearGradient
       id="swatch76">
      <stop
         style="stop-color:#0000ff;stop-opacity:1;"
         offset="0"
         id="stop76" />
    </linearGradient>
    <linearGradient
       id="swatch72">
      <stop
         style="stop-color:#f9f7fd;stop-opacity:1;"
         offset="0"
         id="stop72" />
    </linearGradient>
    <linearGradient
       id="swatch17">
      <stop
         style="stop-color:#000000;stop-opacity:1;"
         offset="0"
         id="stop17" />
    </linearGradient>
    <linearGradient
       id="swatch14">
      <stop
         style="stop-color:#000000;stop-opacity:1;"
         offset="0"
         id="stop14" />
    </linearGradient>
    <linearGradient
       id="swatch13">
      <stop
         style="stop-color:#000000;stop-opacity:1;"
         offset="0"
         id="stop13" />
    </linearGradient>
    <linearGradient
       xlink:href="#swatch13"
       id="linearGradient56"
       gradientUnits="userSpaceOnUse"
       x1="-283.26382"
       y1="-59.999111"
       x2="-266.13443"
       y2="-59.999111" />
  </defs>
  <g
     id="layer1">
    <g
       id="g51"
       transform="matrix(2.1346717,0,0,2.1070914,676.1941,241.79187)">
      <g
         id="g43"
         transform="translate(18.998297,5.2314152)">
        <path
           id="path42"
           style="fill:#000000;fill-rule:evenodd;stroke:#000000;stroke-width:1.02283"
           d="m -325.43497,-50.796129 18.75544,6.843225 c 0.19392,0.07075 0.33965,0.15615 0.32676,0.191481 l -1.36927,3.752799 c -0.0129,0.03532 -0.17937,0.0068 -0.37329,-0.06395 l -18.75544,-6.843225 c -0.19392,-0.07075 -0.33966,-0.15615 -0.32677,-0.191472 l 1.36927,-3.752799 c -0.91229,2.500334 0.17938,-0.0068 0.3733,0.06395 z" />
        <path
           id="path43"
           style="fill:#000000;fill-rule:evenodd;stroke:#000000;stroke-width:1.02283"
           d="m -328.33534,-40.680928 19.66657,-3.438386 c 0.20333,-0.03556 0.37224,-0.03435 0.37872,0.0027 l 0.68799,3.935107 c 0.006,0.03704 -0.152,0.09547 -0.35534,0.131029 l -19.66657,3.438387 c -0.20334,0.03555 -0.37225,0.03436 -0.37872,-0.0027 l -0.68799,-3.935107 c 0.45837,2.6218 0.15201,-0.09548 0.35535,-0.131034 z" />
      </g>
      <ellipse
         style="fill:#ff2a2a;fill-opacity:1;stroke-width:0.259546"
         id="ellipse43"
         ry="20.78512"
         rx="24.332022"
         cy="-35.403458"
         cx="-268.23773" />
      <g
         id="g45"
         transform="translate(-37.216537,31.576499)">
        <ellipse
           style="fill:#ffffff;fill-opacity:1;stroke-width:0.053194"
           id="ellipse44"
           ry="4.6516128"
           rx="4.5668745"
           cy="-72.724037"
           cx="-210.47791" />
        <ellipse
           style="fill:#000000;fill-opacity:1;stroke-width:0.0336573"
           id="ellipse45"
           ry="3.2537851"
           rx="2.6137729"
           cy="-72.708572"
           cx="-208.36305" />
        <path
           style="fill:#000000;fill-opacity:1;stroke-width:0.372915"
           d="m -232.11772,-80.523432 c 2.16991,2.722331 0.7276,4.971509 0.70722,5.677224 -0.0203,0.705716 -0.19035,0.558266 -0.19035,0.558266 0,0 3.94988,-1.156515 7.65786,-1.216362 1.90392,-0.0308 8.25951,1.729558 8.25951,1.729558 l -2.23689,-4.502819 -8.54638,-1.1273 z"
           id="path45" />
      </g>
      <g
         id="g47"
         transform="matrix(0.94921914,0,0,0.93234841,-56.298391,29.214402)">
        <ellipse
           style="fill:#ffffff;fill-opacity:1;stroke-width:0.053194"
           id="ellipse46"
           ry="4.6516128"
           rx="4.5668745"
           cy="-72.724037"
           cx="-210.47791" />
        <ellipse
           style="fill:#000000;fill-opacity:1;stroke-width:0.0336573"
           id="ellipse47"
           ry="3.2537851"
           rx="2.6137729"
           cy="-72.708572"
           cx="-208.36305" />
      </g>
      <path
         style="fill:#ff2a2a;fill-opacity:1;fill-rule:evenodd;stroke:url(#linearGradient56);stroke-width:1.865;stroke-dasharray:none"
         d="m -266.138,-53.128525 c 0.0413,0.371525 -0.28897,0.123837 -0.28897,0.123837 0,0 0.33025,0.247688 -0.16512,-0.123838 -0.49536,-0.371526 -1.81635,-1.36227 -3.17862,-1.857641 -1.36227,-0.49537 -2.76584,-0.49537 -4.08682,-0.784339 -1.32099,-0.288969 -2.55942,-0.866903 -3.79784,-1.486116 -1.23843,-0.619213 -2.47686,-1.279709 -3.21991,-1.898921 -0.74305,-0.619213 -0.99073,-1.197143 -1.11458,-1.775074 -0.12384,-0.577932 -0.12384,-1.155864 -0.2064,-1.609953 -0.0826,-0.45409 -0.24769,-0.78434 -0.33025,-1.032025 -0.0826,-0.247685 -0.0826,-0.412809 -0.28897,-1.073303 -0.2064,-0.660493 -0.61922,-1.816364 -0.37153,-2.229171 0.24768,-0.412807 1.15586,-0.08256 1.69252,0.08256 0.53665,0.165124 0.70178,0.165124 1.11459,0.330247 0.4128,0.165122 1.0733,0.495375 1.56866,0.743059 0.49537,0.247683 0.82563,0.41281 1.07332,0.495371 0.24769,0.08256 0.41279,0.08256 0.53664,0.123849 0.12385,0.04129 0.20641,0.123831 0.33025,0.165114 0.12385,0.04128 0.28895,0.04128 0.90817,0.33025 0.61922,0.288967 1.69253,0.866901 2.84839,1.898918 1.15586,1.032017 2.39429,2.518137 3.38504,3.674004 0.99074,1.155867 1.7338,1.981486 2.10532,2.476855 0.37153,0.49537 0.37153,0.660494 0.41282,0.784346 0.0413,0.123853 0.12384,0.2064 0.37152,0.743048 0.24768,0.536647 0.66049,1.527395 0.70177,1.89892 z"
         id="path47" />
      <path
         style="fill:#000000;fill-opacity:1;stroke-width:0.226884"
         d="m -245.01036,-52.706338 c -0.99117,2.833231 -0.33235,4.239033 -0.32304,4.805031 0.009,0.566021 0.0869,0.397385 0.0869,0.397385 0,0 -1.80421,0.20439 -3.49794,1.227571 -0.86966,0.525311 -3.77275,3.788734 -3.77275,3.788734 l 1.02176,-4.295438 3.9038,-3.383595 z"
         id="path48" />
      <g
         id="g50"
         transform="matrix(0.79271803,0,0,0.60608362,-74.861532,-1.8360147)">
        <path
           style="fill:#ffcc00;fill-opacity:1;fill-rule:evenodd;stroke:#000000;stroke-width:1.965;stroke-dasharray:none;stroke-opacity:1"
           d="m -225.13441,-49.147768 c -0.27533,-0.596566 0.0918,-1.881476 0.4589,-2.982825 0.36712,-1.101349 0.73423,-2.019144 1.05546,-2.523929 0.32123,-0.504784 0.59657,-0.596562 0.73424,-0.688342 0.13767,-0.09178 0.13767,-0.183559 0.59656,-0.229449 0.4589,-0.04589 1.37669,-0.04589 2.20271,-0.04589 0.82601,0 1.56024,0 2.47803,0.275337 0.91779,0.275337 2.01914,0.826012 2.6616,1.101351 0.64245,0.275339 0.82601,0.275339 0.91779,0.321229 0.0918,0.04589 0.0918,0.137667 0.18356,0.183557 0.0918,0.04589 0.27534,0.04589 0.55068,0.137669 0.27533,0.09178 0.64245,0.275337 0.96367,0.367117 0.32123,0.09178 0.59657,0.09178 1.10136,0.275338 0.50478,0.183557 1.23902,0.550676 1.65203,0.826017 0.413,0.275342 0.50478,0.458891 0.78012,0.596559 0.27533,0.137668 0.73423,0.229448 1.00957,0.321234 0.27535,0.09179 0.36712,0.183556 0.50478,0.275334 0.13767,0.09178 0.32123,0.183556 0.64246,0.275335 0.32122,0.09178 0.78012,0.183559 1.3308,0.413006 0.55067,0.229448 1.19313,0.596567 1.92736,0.963683 0.73423,0.367115 1.56025,0.734235 2.15681,1.101352 0.59657,0.367117 0.96368,0.734231 0.41301,0.917789 -0.55068,0.183559 -2.01914,0.183559 -3.39583,0.13767 -1.37669,-0.04589 -2.6616,-0.137668 -3.30405,-0.229448 -0.64246,-0.09178 -0.64246,-0.183559 -0.82602,-0.229449 -0.18356,-0.04589 -0.55067,-0.04589 -0.78013,-0.09178 -0.22945,-0.0459 -0.32122,-0.137663 -0.50478,-0.183553 -0.18356,-0.04589 -0.45889,-0.04589 -0.64246,-0.09179 -0.18356,-0.04589 -0.27533,-0.137662 -0.55066,-0.183552 -0.27534,-0.04589 -0.73424,-0.04589 -1.00958,-0.09179 -0.27535,-0.0459 -0.36711,-0.137662 -0.73423,-0.183553 -0.36712,-0.04589 -1.00957,-0.04589 -1.37669,-0.09179 -0.36713,-0.0459 -0.4589,-0.137664 -0.91779,-0.183552 -0.4589,-0.04589 -1.28491,-0.04589 -2.70749,-0.04589 -1.42258,0 -3.44172,0 -4.91019,0.04589 -1.46846,0.04589 -2.38626,0.137669 -2.6616,-0.458897 z"
           id="path49" />
        <path
           style="fill:#ffcc00;fill-opacity:1;fill-rule:evenodd;stroke:#000000;stroke-width:1.965;stroke-dasharray:none;stroke-opacity:1"
           d="m -225.22618,-48.459424 c 0,0 6.6081,4.956077 6.6081,4.956077 0,0 13.49154,-2.753376 13.49154,-2.753376"
           id="path50"
           transform="matrix(0.98908877,0,0,1.4047709,-3.1759958,18.145297)" />
      </g>
    </g>
  </g>
</svg>
