<?xml version="1.0" encoding="UTF-8" standalone="no"?>
<svg
   version="1.1"
   id="svg497"
   width="76.149994"
   height="29.950012"
   sodipodi:docname="tapRight.svg"
   inkscape:export-filename="tapRight.png"
   inkscape:export-xdpi="96"
   inkscape:export-ydpi="96"
   inkscape:version="1.4.2 (ebf0e940, 2025-05-08)"
   xmlns:inkscape="http://www.inkscape.org/namespaces/inkscape"
   xmlns:sodipodi="http://sodipodi.sourceforge.net/DTD/sodipodi-0.dtd"
   xmlns="http://www.w3.org/2000/svg"
   xmlns:svg="http://www.w3.org/2000/svg">
  <sodipodi:namedview
     id="namedview1"
     pagecolor="#ffffff"
     bordercolor="#000000"
     borderopacity="0.25"
     inkscape:showpageshadow="2"
     inkscape:pageopacity="0.0"
     inkscape:pagecheckerboard="0"
     inkscape:deskcolor="#d1d1d1"
     inkscape:zoom="0.86811317"
     inkscape:cx="38.013477"
     inkscape:cy="14.399044"
     inkscape:window-width="1440"
     inkscape:window-height="768"
     inkscape:window-x="0"
     inkscape:window-y="25"
     inkscape:window-maximized="0"
     inkscape:current-layer="svg497" />
  <defs
     id="defs6" />
  <g
     id="g497"
     transform="translate(-201.85001,-723)">
    <path
       stroke="none"
       fill="#c83e3e"
       d="M 278,752.95 H 216.7 L 201.85,738 216.7,723 H 278 v 29.95"
       id="path221" />
    <path
       stroke="none"
       fill="#ffffff"
       d="m 245.75,731.6 0.15,0.2 1.35,3 1.35,3.2 1.4,3.65 1.5,4.2 v 0.25 l -0.1,0.2 -0.3,0.1 h -3.4 l -0.25,-0.1 -0.15,-0.2 -0.45,-1.45 -0.45,-1.3 h -4.9 l -0.45,1.3 -0.5,1.45 -0.15,0.25 -0.25,0.05 h -3.3 l -0.25,-0.1 -0.15,-0.2 v -0.25 l 1.5,-4.2 1.4,-3.65 1.35,-3.2 1.4,-3 0.15,-0.2 0.2,-0.05 h 3.05 l 0.25,0.05 m 7.75,0.3 q 0.1,-0.15 0.25,-0.15 l 2.2,-0.3 2.1,-0.05 q 3.3,0 5.05,1.15 1.9,1.2 1.9,3.95 0,2.8 -1.9,4.05 -1.8,1.15 -5.1,1.15 h -0.6 v 4.3 l -0.1,0.3 -0.35,0.1 h -3.15 l -0.3,-0.1 -0.1,-0.3 v -13.85 l 0.1,-0.25 m 3.9,3.05 v 3.25 h 0.6 q 1.5,0 2.25,-0.4 0.6,-0.35 0.6,-1.3 l -0.15,-0.75 -0.45,-0.45 -0.8,-0.3 -1.2,-0.1 -0.65,0.05 h -0.2 m -13.05,2.4 -0.45,-1.05 -0.35,1.05 -0.6,1.5 -0.4,1.15 h 2.8 l -0.45,-1.15 -0.55,-1.5 m -19.25,-2.4 -0.1,-0.3 v -2.7 l 0.1,-0.3 0.3,-0.1 h 11.7 l 0.3,0.1 0.1,0.3 v 2.7 l -0.1,0.3 -0.3,0.15 h -3.85 V 746 l -0.1,0.3 -0.3,0.1 h -3.2 l -0.3,-0.1 -0.1,-0.3 v -10.9 h -3.85 l -0.3,-0.15"
       id="path222" />
  </g>
</svg>
